<?xml version="1.0" encoding="iso-8859-1"?>
<!-- Generator: Adobe Illustrator 19.0.0, SVG Export Plug-In . SVG Version: 6.00 Build 0)  -->
<svg xmlns="http://www.w3.org/2000/svg" xmlns:xlink="http://www.w3.org/1999/xlink" version="1.1" id="Capa_1" x="0px" y="0px" viewBox="0 0 479.978 479.978" style="enable-background:new 0 0 479.978 479.978;" xml:space="preserve" width="512px" height="512px">
<g>
	<g>
		<path d="M407.767,58.554h-0.016C329.633-19.537,203-19.515,124.909,58.603C93.977,89.545,74.045,129.776,68.167,173.13    L14.343,292.698c-1.812,4.03-0.013,8.765,4.017,10.577c1.026,0.461,2.138,0.701,3.263,0.703h44.72v88c0,4.418,3.582,8,8,8h88v72    c0,4.418,3.582,8,8,8h192c4.418,0,8-3.582,8-8V370.714c13.616-8.225,26.183-18.073,37.424-29.328    C485.865,263.283,485.865,136.658,407.767,58.554z M396.439,330.082c-11.345,11.353-24.157,21.139-38.096,29.096    c-2.483,1.433-4.008,4.085-4,6.952v97.848h-176v-72c0-4.418-3.582-8-8-8h-88v-88c0-4.418-3.582-8-8-8H33.999l49.24-109.36    c0.328-0.718,0.544-1.481,0.64-2.264C96.908,75.573,189.17,4.435,289.952,17.464c100.782,13.029,171.919,105.291,158.89,206.073    C443.628,263.867,425.201,301.334,396.439,330.082z" fill="#FFFFFF"/>
	</g>
</g>
<g>
	<g>
		<path d="M314.343,135.978c0-13.255-10.745-24-24-24h-8v-16h-16v16h-8v-16h-16v16h-24v16h16v80h-16v16h24v16h16v-16h8v16h16v-16h8    c13.255,0,24-10.745,24-24v-16c-0.021-5.923-2.245-11.627-6.24-16c3.995-4.373,6.219-10.077,6.24-16V135.978z M298.343,199.978    c0,4.418-3.582,8-8,8h-40v-32h40c4.418,0,8,3.582,8,8V199.978z M298.343,151.978c0,4.418-3.582,8-8,8h-40v-32h40    c4.418,0,8,3.582,8,8V151.978z" fill="#FFFFFF"/>
	</g>
</g>
<g>
	<g>
		<path d="M400.957,271.898c-3.406-9.56-12.465-15.938-22.614-15.92c-10.166-0.045-19.231,6.389-22.544,16h-17.456V242.85    c41.447-39.765,42.811-105.6,3.047-147.047c-39.765-41.447-105.6-42.811-147.047-3.047c-41.447,39.765-42.811,105.6-3.047,147.047    c0.994,1.036,2.01,2.052,3.047,3.047v29.128h-17.456c-3.305-9.617-12.375-16.054-22.544-16    c-13.255-0.055-24.044,10.646-24.099,23.9c-0.055,13.255,10.646,24.044,23.9,24.099c10.207,0.042,19.324-6.376,22.727-16h25.472    c4.418,0,8-3.582,8-8v-24.504c5.076,3.295,10.429,6.14,16,8.504c0,9.224,0,22.552,0,28.688l-13.712,13.712    c-12.057-5.809-26.539-0.744-32.348,11.312c-5.809,12.057-0.745,26.539,11.312,32.348c12.056,5.809,26.539,0.745,32.348-11.312    c3.202-6.646,3.202-14.39,0-21.036l16.056-16.056c1.5-1.5,2.344-3.534,2.344-5.656c0,0,0.04-14.88,0.04-26.92    c5.246,1.255,10.582,2.095,15.96,2.512v65.88c-12.497,4.418-19.046,18.131-14.627,30.627    c4.418,12.497,18.131,19.046,30.627,14.627c12.497-4.418,19.046-18.131,14.627-30.627c-2.416-6.835-7.793-12.211-14.627-14.627    v-65.88c5.391-0.411,10.741-1.248,16-2.504c0,11.936,0,26.912,0,26.912c-0.002,2.124,0.842,4.162,2.344,5.664l16.056,16.048    c-5.809,12.057-0.745,26.539,11.312,32.348c12.056,5.809,26.539,0.745,32.348-11.312c5.809-12.056,0.744-26.539-11.312-32.348    c-6.646-3.202-14.39-3.202-21.036,0l-13.712-13.712c0-6.168,0-19.56,0-28.712c5.569-2.359,10.922-5.196,16-8.48v24.504    c0,4.418,3.582,8,8,8h25.472c4.44,12.465,18.145,18.971,30.611,14.531C398.892,298.069,405.397,284.364,400.957,271.898z     M154.343,287.978c-4.418,0.001-8.001-3.58-8.002-7.998c-0.001-4.418,3.58-8.001,7.998-8.002c2.127,0,4.166,0.846,5.667,2.352    c1.504,1.494,2.345,3.528,2.336,5.648C162.343,284.397,158.762,287.978,154.343,287.978z M202.343,335.978    c-4.418,0.001-8.001-3.58-8.002-7.998c-0.001-4.418,3.58-8.001,7.998-8.002c2.127,0,4.166,0.846,5.667,2.352    c1.504,1.494,2.345,3.528,2.336,5.648C210.343,332.397,206.762,335.978,202.343,335.978z M330.343,319.978c4.418,0,8,3.582,8,8    s-3.582,8-8,8s-8-3.582-8-8S325.925,319.978,330.343,319.978z M266.343,367.978c-4.418,0-8-3.582-8-8s3.582-8,8-8s8,3.582,8,8    S270.762,367.978,266.343,367.978z M266.343,255.978c-48.577-0.057-87.943-39.423-88-88c0-48.601,39.399-88,88-88s88,39.399,88,88    S314.944,255.978,266.343,255.978z M378.343,287.978c-4.418,0-8-3.582-8-8s3.582-8,8-8s8,3.582,8,8    S382.762,287.978,378.343,287.978z" fill="#FFFFFF"/>
	</g>
</g>
<g>
</g>
<g>
</g>
<g>
</g>
<g>
</g>
<g>
</g>
<g>
</g>
<g>
</g>
<g>
</g>
<g>
</g>
<g>
</g>
<g>
</g>
<g>
</g>
<g>
</g>
<g>
</g>
<g>
</g>
</svg>
